<?xml version="1.0" encoding="UTF-8" standalone="no"?>
<!-- Uploaded to: SVG Repo, www.svgrepo.com, Generator: SVG Repo Mixer Tools -->

<svg
   fill="#c0caf5"
   width="800px"
   height="800px"
   viewBox="0 0 1000 1000"
   version="1.1"
   enable-background="new 0 0 1000 1000"
   xml:space="preserve"
   id="svg5"
   sodipodi:docname="mute-user-svgrepo-com.svg"
   inkscape:version="1.4.2 (ebf0e940d0, 2025-05-08)"
   xmlns:inkscape="http://www.inkscape.org/namespaces/inkscape"
   xmlns:sodipodi="http://sodipodi.sourceforge.net/DTD/sodipodi-0.dtd"
   xmlns="http://www.w3.org/2000/svg"
   xmlns:svg="http://www.w3.org/2000/svg"><defs
   id="defs5">













</defs><sodipodi:namedview
   id="namedview5"
   pagecolor="#505050"
   bordercolor="#eeeeee"
   borderopacity="1"
   inkscape:showpageshadow="0"
   inkscape:pageopacity="0"
   inkscape:pagecheckerboard="0"
   inkscape:deskcolor="#505050"
   inkscape:zoom="1.03375"
   inkscape:cx="399.51632"
   inkscape:cy="343.89359"
   inkscape:window-width="1916"
   inkscape:window-height="1038"
   inkscape:window-x="0"
   inkscape:window-y="38"
   inkscape:window-maximized="1"
   inkscape:current-layer="g6" />

<g
   id="g5"
   transform="matrix(1.1414411,0,0,1.1830805,-7.8830273,-47.595718)">

<path
   d="m 125.14874,42.756311 c -2.63016,2.55606 -2.77501,4.11194 -2.04315,18.72966 1.89829,36.59985 2.77501,72.495869 1.75345,74.911159 -1.89828,5.10471 -7.44829,4.82317 -18.54067,-0.71125 -9.925966,-5.10474 -10.512986,-5.10474 -14.012226,-2.97838 -2.04314,1.27434 -3.65172,3.54885 -3.65172,5.25291 0,1.56327 4.08626,21.13752 9.04923,43.55677 l 9.049256,40.71921 0.87672,48.23919 0.87672,48.23919 6.27425,17.73686 c 8.46985,23.55283 14.30955,35.75525 24.23552,50.64709 10.36815,15.46234 33.87181,38.44466 48.46343,47.24641 10.36052,6.23828 10.51298,6.52722 9.78112,11.35039 -1.89828,12.48398 0,11.35041 -19.9968,11.35041 -9.92595,0 -22.33723,0.9928 -28.03209,2.12634 -15.17864,3.09692 -32.8426,12.03204 -43.79012,22.38963 -13.135516,12.3432 -83.067109,102.71668 -89.341351,115.20065 -7.5931409,15.6031 -9.1941049,25.67916 -9.1941049,59.58218 0,20.00397 0.731868,32.76946 2.04313,39.15592 4.2311189,19.01118 15.6208259,37.31111 31.0967969,49.79508 8.172537,6.66798 22.482092,14.32874 29.930383,16.03278 l 4.08626,0.9928 V 730.6854 c 0,-28.37601 0.28971,-32.48792 2.91986,-37.88158 2.18798,-4.82317 4.23111,-6.66799 9.63627,-8.9351 8.17254,-3.54888 14.599266,-2.8376 21.170826,2.55606 8.02768,6.66799 8.6147,9.64635 8.6147,46.53516 v 33.33995 h 142.33321 142.33322 v -33.33995 c 0,-36.88881 0.58701,-39.86717 8.61471,-46.53516 6.71642,-5.53444 13.28037,-6.24569 21.46052,-2.41529 11.38971,5.39365 12.2588,8.65356 12.2588,47.80949 v 33.05843 h 4.08626 c 11.23724,0 32.99509,-8.79437 45.25389,-18.29995 14.7441,-11.49118 27.30022,-30.64313 31.67621,-48.80227 3.06468,-12.62474 3.06468,-69.37675 0,-81.14944 -3.06472,-11.9209 -12.55615,-29.93187 -20.14166,-38.16314 l -6.42671,-7.09771 -23.93821,-0.14076 c -20.29411,0 -25.83649,-0.57049 -36.34949,-3.40808 -50.07964,-13.18781 -87.30582,-49.93584 -100.88353,-99.44196 -4.23111,-15.60309 -4.67327,-47.66871 -0.8767,-62.99027 10.21566,-39.86717 38.53745,-74.76299 74.30753,-91.36627 l 11.23724,-5.25289 V 241.3735 c 0.14485,-74.34066 0,-75.47422 -9.04924,-93.63339 -6.27425,-12.62472 -24.52522,-30.36158 -37.51592,-36.45908 -18.25097,-8.65356 -21.17082,-8.93511 -84.66806,-9.08328 H 232.45135 L 219.30822,85.742631 c -7.15096,-9.08328 -14.59925,-17.30714 -16.3527,-18.44069 -4.23111,-2.69685 -8.46984,-0.4223 -11.38968,5.95673 -1.75346,4.11193 -2.77502,4.96395 -6.5716,4.96395 -3.65172,0 -8.02768,-2.8376 -20.8735,-13.19521 -33.86418,-27.23503 -33.86418,-27.23503 -38.972,-22.2711 z"
   id="path1"
   style="stroke-width:0.0751549" />

<g
   id="g6"
   transform="matrix(24.003011,0,0,25.677359,346.22009,122.02046)"><g
     class="st0"
     id="grid_system" /><g
     id="g2">

<path
   d="M 14.6,4.6 C 13.7,4 12.5,3.8 11.5,4.2 10.4,4.6 9.4,5.1 8.6,5.8 L 6.2,7.6 H 5 c -1.7,0 -3,1.3 -3,3 v 2.9 c 0,1.7 1.3,3 3,3 h 1.2 l 2.3,1.8 c 0.9,0.7 1.9,1.2 2.9,1.6 0.4,0.1 0.8,0.2 1.2,0.2 0.7,0 1.4,-0.2 2,-0.6 0.9,-0.6 1.4,-1.6 1.4,-2.7 V 7.3 C 16,6.2 15.5,5.2 14.6,4.6 Z M 5.5,14.4 H 5 c -0.6,0 -1,-0.4 -1,-1 v -2.9 c 0,-0.6 0.4,-1 1,-1 h 0.5 z m 8.5,2.3 c 0,0.4 -0.2,0.8 -0.6,1 C 13,18 12.5,18 12.1,17.9 11.2,17.6 10.4,17.1 9.7,16.6 L 7.5,14.9 V 9.1 L 9.7,7.4 c 0.7,-0.6 1.5,-1 2.4,-1.3 0.4,-0.2 0.9,-0.1 1.3,0.2 0.3,0.2 0.6,0.6 0.6,1 z"
   id="path1-3" />

<path
   d="m 21.133356,11.601957 0.886651,-0.816096 c 0.506657,-0.46634 0.506657,-1.1658509 0,-1.6321914 -0.506658,-0.4663404 -1.266644,-0.4663404 -1.773302,0 L 19.360054,9.9697655 18.473403,9.1536696 c -0.506657,-0.4663404 -1.266644,-0.4663404 -1.773302,0 -0.506657,0.4663405 -0.506657,1.1658514 0,1.6321914 l 0.886651,0.816096 -0.886651,0.816096 c -0.506657,0.46634 -0.506657,1.165851 0,1.632192 0.253329,0.23317 0.633322,0.349755 0.886651,0.349755 0.253329,0 0.633322,-0.116585 0.886651,-0.349755 l 0.886651,-0.816096 0.886651,0.816096 C 20.500034,14.283415 20.880027,14.4 21.133356,14.4 c 0.253329,0 0.633322,-0.116585 0.886651,-0.349755 0.506657,-0.466341 0.506657,-1.165852 0,-1.632192 z"
   id="path2-6"
   style="stroke-width:1.2152" />

</g></g></g>
<style
   type="text/css"
   id="style1">
	.st0{display:none;}
	.st1{display:inline;}
	.st2{opacity:0.2;fill:none;stroke:#c0caf5;stroke-width:5.000000e-02;stroke-miterlimit:10;}
</style><style
   type="text/css"
   id="style1-9">
	.st0{display:none;}
	.st1{display:inline;}
	.st2{opacity:0.2;fill:none;stroke:#c0caf5;stroke-width:5.000000e-02;stroke-miterlimit:10;}
</style></svg>
