<?xml version="1.0" encoding="UTF-8" standalone="no"?>
<!-- Uploaded to: SVG Repo, www.svgrepo.com, Generator: SVG Repo Mixer Tools -->

<svg
   fill="#000000"
   width="800px"
   height="800px"
   viewBox="0 0 24 24"
   version="1.1"
   id="svg2"
   sodipodi:docname="fan-on.svg"
   inkscape:version="1.4.2 (ebf0e940d0, 2025-05-08)"
   xmlns:inkscape="http://www.inkscape.org/namespaces/inkscape"
   xmlns:sodipodi="http://sodipodi.sourceforge.net/DTD/sodipodi-0.dtd"
   xmlns="http://www.w3.org/2000/svg"
   xmlns:svg="http://www.w3.org/2000/svg">
  <defs
     id="defs2" />
  <sodipodi:namedview
     id="namedview2"
     pagecolor="#505050"
     bordercolor="#eeeeee"
     borderopacity="1"
     inkscape:showpageshadow="0"
     inkscape:pageopacity="0"
     inkscape:pagecheckerboard="0"
     inkscape:deskcolor="#505050"
     inkscape:zoom="1.03375"
     inkscape:cx="399.03265"
     inkscape:cy="400"
     inkscape:window-width="1078"
     inkscape:window-height="1026"
     inkscape:window-x="6"
     inkscape:window-y="44"
     inkscape:window-maximized="0"
     inkscape:current-layer="svg2" />
  <path
     style="fill:#c0caf5;stroke-width:0.0290206"
     d="m 14.172935,18.673459 c -1.227715,0.426294 -2.242649,0.176447 -2.629563,-0.647322 -0.249957,-0.532176 -0.156306,-1.230024 0.242253,-1.805162 0.216109,-0.311855 0.420163,-0.870064 0.444748,-1.216648 0.01749,-0.246607 -0.01257,-0.606284 -0.0675,-0.807761 l -0.02854,-0.104662 -0.263885,-0.01072 c -0.163799,-0.0067 -0.371435,-0.04543 -0.547448,-0.10222 l -0.283562,-0.0915 -0.240246,0.293795 C 10.300531,14.791068 9.6998517,15.2891 9.071076,15.614067 7.798641,16.271691 6.6883543,16.148238 5.9111352,15.262712 5.7705803,15.10257 5.7253157,15.024633 5.5236289,14.595498 5.2809205,14.079107 5.2156427,13.878393 5.1526916,13.455172 c -0.1658557,-1.11505 0.3909688,-1.962495 1.3401628,-2.039627 0.4028529,-0.03274 0.8757433,0.112235 1.2762088,0.391237 0.3697397,0.257596 0.878497,0.428458 1.3167368,0.442214 0.2032666,0.0064 0.5405119,-0.03436 0.697957,-0.08431 0.1295324,-0.0411 0.1321188,-0.04405 0.1221902,-0.139469 -0.016996,-0.163345 0.05563,-0.559595 0.1396758,-0.762076 L 10.125093,11.07168 9.8506301,10.847867 C 8.0577752,9.3858747 7.4579943,7.412174 8.4432512,6.2166007 8.8417915,5.7329868 9.5781755,5.3402221 10.383872,5.1815327 c 0.554085,-0.1091319 1.146979,-0.038005 1.503465,0.1803643 0.265866,0.1628596 0.408332,0.3205464 0.544353,0.6025127 0.154068,0.3193782 0.193063,0.5836684 0.138875,0.9412365 -0.04795,0.3164109 -0.142642,0.5414208 -0.381513,0.9065681 -0.383789,0.5866752 -0.506675,1.1140141 -0.406712,1.7453093 0.05072,0.3203346 0.07824,0.3832862 0.162641,0.3720995 0.145667,-0.019307 0.479196,0.033139 0.726079,0.1141739 l 0.262997,0.08632 0.259572,-0.3161515 c 0.944885,-1.1508417 2.159969,-1.8403166 3.231936,-1.833897 0.378641,0.00227 0.683458,0.069085 0.965814,0.211713 0.452507,0.2285758 0.747745,0.5377723 1.026778,1.0753219 0.595912,1.1480096 0.605632,2.2775956 0.02483,2.8863766 -0.170608,0.178829 -0.551112,0.379513 -0.792425,0.417937 -0.468495,0.0746 -0.973096,-0.04916 -1.401891,-0.343836 -0.310687,-0.213509 -0.557381,-0.326845 -0.875071,-0.402026 -0.401221,-0.09495 -0.814834,-0.08601 -1.232837,0.02664 -0.08125,0.0219 -0.08671,0.03371 -0.08735,0.18884 -8.53e-4,0.205539 -0.06097,0.504712 -0.146341,0.728263 l -0.06495,0.170088 0.304025,0.24665 c 0.36224,0.293879 0.797118,0.747001 1.06362,1.108241 0.273653,0.370932 0.568617,0.952821 0.674655,1.330919 0.403304,1.438057 -0.20757,2.526062 -1.711483,3.04826 z m -1.604119,-6.245406 c 0.398347,-0.499201 -0.09375,-1.266524 -0.719237,-1.121494 -0.412759,0.09571 -0.656728,0.526719 -0.519632,0.918019 0.192569,0.549634 0.873412,0.661458 1.238869,0.203475 z"
     id="path3" />
  <path
     style="fill:#c0caf5;stroke-width:0.967352"
     d="M 376.78356,732.12298 C 324.33307,727.77399 277.66161,713.52792 234.46127,688.68031 221.95858,681.48912 203.11447,668.6217 191.573,659.39469 179.37448,649.64239 154.63102,625.35943 144.76723,613.46001 77.721305,532.57761 52.45134,427.36403 75.608963,325.51391 95.915948,236.20125 154.20362,157.61206 234.46127,111.33356 272.2459,89.546033 313.43422,75.742504 358.88755,69.63432 c 15.7536,-2.117027 49.80358,-2.902298 66.2636,-1.528191 51.1196,4.267543 99.7688,19.316171 141.38676,43.735081 49.19163,28.86268 91.99532,71.32997 120.17122,119.22676 21.75149,36.97582 36.53743,78.98554 42.60465,121.04811 13.2225,91.66833 -11.54285,182.5267 -69.82816,256.18352 -9.69655,12.25381 -38.75596,41.358 -51.05862,51.13729 -52.82997,41.99414 -114.38387,66.53934 -181.34115,72.31149 -10.63541,0.91684 -41.03259,1.14321 -50.30229,0.3746 z m 46.91656,-48.70368 c 36.10191,-3.13364 69.45442,-12.44908 102.05562,-28.50438 79.49092,-39.14736 136.00398,-112.66736 153.20413,-199.30909 6.7341,-33.92138 6.7341,-77.29028 0,-111.21166 -10.96783,-55.24791 -37.52473,-104.85461 -77.72525,-145.1862 -38.88144,-39.00819 -88.3569,-66.03374 -141.29655,-77.18204 -23.27282,-4.9009 -33.08636,-5.86042 -59.93807,-5.86042 -26.85171,0 -36.66525,0.95952 -59.93807,5.86042 -86.79278,18.27726 -162.22191,78.94253 -198.88522,159.95714 -12.76199,28.20006 -20.63367,57.19635 -24.14534,88.9423 -1.31522,11.88977 -1.28679,45.15954 0.0496,58.05185 6.80639,65.66129 35.1082,125.17937 81.68439,171.78046 48.78664,48.81273 110.96043,77.33768 180.92023,83.00509 9.12878,0.73951 33.75132,0.54737 44.01451,-0.34347 z"
     id="path4"
     transform="scale(0.03)"
     inkscape:label="path4" />
</svg>
